<svg xmlns="http://www.w3.org/2000/svg" fill="none" viewBox="0 0 701 440">
  <path fill="#fff" fill-opacity=".01" d="M1 0h24v20H1zM0 420h24v20H0z"/>
  <path fill="#fff" d="M1 20h700v400H1z"/>
  <path stroke="#E9E9E9" d="M21 399.5h660m-660-52h660m-660-51h660m-660-52h660m-660-52h660m-660-51h660m-660-52h660"/>
  <path fill="#2D2D2D" d="M24.7 63h2.98c.26-5.78.7-8.82 4.14-13.02V48.2H22v2.46h6.66c-2.84 3.92-3.68 7.22-3.96 12.34Zm14.1169-16.2c-2.82 0-4.94 1.76-4.94 4.24 0 2.46 2.12 4.22 4.94 4.22 2.82 0 4.94-1.76 4.94-4.22 0-2.48-2.12-4.24-4.94-4.24Zm0 2.16c1.36 0 2.36.76 2.36 2.08s-1 2.08-2.36 2.08c-1.36 0-2.38-.76-2.38-2.08s1.02-2.08 2.38-2.08Zm7.5-2.7v9.26h2.68v-9.26h-2.68Zm-9.68 10.02v2.06h9.72v1.1h-9.68v4.16h2.6v-2.24h9.72v-5.08h-12.36Zm.04 6.24v2.06h12.78v-2.06h-12.78Zm28.3897-4.94c-3.86 0-6.28 1.34-6.28 3.6 0 2.28 2.42 3.62 6.28 3.62 3.84 0 6.26-1.34 6.26-3.62 0-2.26-2.42-3.6-6.26-3.6Zm0 2.08c2.36 0 3.62.48 3.62 1.52 0 1.06-1.26 1.56-3.62 1.56-2.36 0-3.64-.5-3.64-1.56 0-1.04 1.28-1.52 3.64-1.52Zm3.38-13.4v10.9h2.66v-10.9h-2.66Zm1.92 4.3v2.2h3.2v-2.2h-3.2Zm-13.3-3.12v8.7h8.9v-8.7h-2.64v2.28h-3.62v-2.28h-2.64Zm2.64 4.34h3.62v2.28h-3.62v-2.28ZM74.925 55.4v2.12h16.76V55.4h-16.76Zm7.26 1.34v3.9h2.68v-3.9h-2.68Zm-5.2-9.7v6.88h12.58v-6.88h-12.58Zm9.96 2.08v2.72h-7.36v-2.72h7.36Zm-10.08 13.22v2.12h12.98v-2.12h-12.98Zm0-3.26v3.96h2.64v-3.96h-2.64Zm20.6184-9.9v2.08c0 3.04-1.5 6.5-4.56 7.94l1.5 2.1c3.4-1.6 5.16-5.86 5.16-10.04v-2.08h-2.1Zm.56 0v2.08c0 3.94 1.72 8 5.1196 9.58l1.46-2.1c-3.04-1.4-4.48-4.68-4.48-7.48v-2.08h-2.0996Zm-4.4-1.14v2.18h10.1596v-2.18H93.6434Zm11.5196-1.78v18.52h2.68V46.26h-2.68Zm2.08 7.06v2.2h3.28v-2.2h-3.28Zm8.99 2.48v2.08h16.76V55.8h-16.76Zm7.04-1.98v2.74h2.66v-2.74h-2.66Zm-4.96-1.16v2.02h12.9v-2.02h-12.9Zm0-5.94v7.08h2.64v-5.06h10.12v-2.02h-12.76Zm1.9 3v1.94h10.44v-1.94h-10.44Zm4.38 8.98c-4.08 0-6.44 1.08-6.44 3.04 0 1.98 2.36 3.04 6.44 3.04 4.06 0 6.42-1.06 6.42-3.04 0-1.96-2.36-3.04-6.42-3.04Zm0 1.96c2.56 0 3.74.32 3.74 1.08 0 .78-1.18 1.1-3.74 1.1-2.58 0-3.76-.32-3.76-1.1 0-.76 1.18-1.08 3.76-1.08Zm17.199-9.52v2.12h3.76v-2.12h-3.76Zm-.1 4.62v2.12h3.78v-2.12h-3.78Zm6.38-9.5v18.52h2.54V46.26h-2.54Zm-3.82.4v17.3h2.48v-17.3h-2.48Zm-4.18 1.78v.54c0 4.48-1.5 7.56-5.68 10.1l1.5 1.86c5.16-3.04 6.74-7.24 6.74-12.5h-2.56Zm-4.62 0v2.12h5.52v-2.12h-5.52Z"/>
  <path fill="#fff" fill-opacity=".01" d="M1 20h20v20H1zm680 380h20v20h-20z"/>
  <path fill="#FFE381" fill-opacity=".5" d="M41 300h30.0971v100H41z"/>
  <path fill="#C4C4C4" d="M47.2071 297h4.906v-1.309h-1.529v-6.831h-1.199c-.528.319-1.078.528-1.903.682v1.001h1.485v5.148h-1.76V297Zm8.8423.154c1.65 0 2.75-1.441 2.75-4.257 0-2.805-1.1-4.18-2.75-4.18-1.661 0-2.761 1.375-2.761 4.18 0 2.816 1.1 4.257 2.761 4.257Zm0-1.265c-.704 0-1.232-.704-1.232-2.992 0-2.277.528-2.937 1.232-2.937s1.221.66 1.221 2.937c0 2.288-.517 2.992-1.221 2.992Zm6.4883 1.265c1.65 0 2.75-1.441 2.75-4.257 0-2.805-1.1-4.18-2.75-4.18-1.661 0-2.761 1.375-2.761 4.18 0 2.816 1.1 4.257 2.761 4.257Zm0-1.265c-.704 0-1.232-.704-1.232-2.992 0-2.277.528-2.937 1.232-2.937s1.221.66 1.221 2.937c0 2.288-.517 2.992-1.221 2.992Z"/>
  <path fill="#FFE381" fill-opacity=".5" d="M139.317 200h30.0971v200H139.317z"/>
  <path fill="#C4C4C4" d="M145.123 197h5.456v-1.364h-1.771c-.374 0-.913.044-1.32.088 1.485-1.452 2.706-3.036 2.706-4.51 0-1.518-1.023-2.508-2.563-2.508-1.111 0-1.837.44-2.585 1.232l.88.88c.407-.451.902-.836 1.496-.836.77 0 1.221.495 1.221 1.32 0 1.254-1.309 2.783-3.52 4.763V197Zm9.249.154c1.65 0 2.75-1.452 2.75-4.257 0-2.805-1.1-4.191-2.75-4.191-1.661 0-2.761 1.375-2.761 4.191 0 2.805 1.1 4.257 2.761 4.257Zm0-1.265c-.704 0-1.232-.704-1.232-2.992 0-2.277.528-2.937 1.232-2.937.693 0 1.221.66 1.221 2.937 0 2.288-.528 2.992-1.221 2.992Zm6.478 1.265c1.65 0 2.75-1.452 2.75-4.257 0-2.805-1.1-4.191-2.75-4.191-1.661 0-2.761 1.375-2.761 4.191 0 2.805 1.1 4.257 2.761 4.257Zm0-1.265c-.704 0-1.232-.704-1.232-2.992 0-2.277.528-2.937 1.232-2.937.693 0 1.221.66 1.221 2.937 0 2.288-.528 2.992-1.221 2.992Z"/>
  <path fill="#FFE381" fill-opacity=".5" d="M237.634 225h30.0971v175H237.634z"/>
  <path fill="#C4C4C4" d="M243.841 222h4.906v-1.309h-1.529v-6.831h-1.199c-.528.319-1.078.528-1.903.682v1.001h1.485v5.148h-1.76V222Zm7.633 0h1.639c.143-3.179.385-4.851 2.277-7.161v-.979h-5.401v1.353h3.663c-1.562 2.156-2.024 3.971-2.178 6.787Zm7.489.154c1.496 0 2.849-1.045 2.849-2.849 0-1.782-1.144-2.585-2.508-2.585-.374 0-.66.077-.979.22l.154-1.727h2.959v-1.353h-4.356l-.231 3.949.748.484c.473-.308.737-.429 1.221-.429.814 0 1.364.528 1.364 1.474 0 .968-.583 1.507-1.441 1.507-.748 0-1.331-.374-1.782-.825l-.759 1.023c.616.605 1.474 1.111 2.761 1.111Z"/>
  <path fill="#FFE381" fill-opacity=".5" d="M335.952 124h30.0971v276H335.952z"/>
  <path fill="#C4C4C4" d="M341.757 121h5.456v-1.364h-1.771c-.374 0-.913.044-1.32.088 1.485-1.452 2.706-3.036 2.706-4.51 0-1.518-1.023-2.508-2.563-2.508-1.111 0-1.837.44-2.585 1.232l.88.88c.407-.451.902-.836 1.496-.836.77 0 1.221.495 1.221 1.32 0 1.254-1.309 2.783-3.52 4.763V121Zm8.05 0h1.639c.132-3.19.385-4.851 2.277-7.161v-.979h-5.412v1.353h3.663c-1.551 2.156-2.024 3.96-2.167 6.787Zm7.875-1.067c-.682 0-1.232-.572-1.386-2.057.407-.627.891-.858 1.331-.858.704 0 1.155.451 1.155 1.419 0 .99-.495 1.496-1.1 1.496Zm2.464-6.303c-.495-.506-1.221-.924-2.211-.924-1.639 0-3.146 1.298-3.146 4.334 0 2.871 1.375 4.114 2.926 4.114 1.386 0 2.552-1.045 2.552-2.717 0-1.749-.968-2.563-2.332-2.563-.528 0-1.232.33-1.672.869.066-2.035.836-2.739 1.771-2.739.473 0 .968.264 1.254.594l.858-.968Z"/>
  <path fill="#FFE381" fill-opacity=".5" d="M434.269 182h30.0971v218H434.269z"/>
  <path fill="#C4C4C4" d="M440.074 179h5.456v-1.364h-1.771c-.374 0-.913.044-1.32.088 1.485-1.452 2.706-3.036 2.706-4.51 0-1.518-1.023-2.508-2.563-2.508-1.111 0-1.837.44-2.585 1.232l.88.88c.407-.451.902-.836 1.496-.836.77 0 1.221.495 1.221 1.32 0 1.254-1.309 2.783-3.52 4.763V179Zm6.906 0h4.895v-1.309h-1.529v-6.831h-1.199c-.517.319-1.078.528-1.892.682v1.001h1.474v5.148h-1.749V179Zm8.81.154c1.65 0 2.739-.946 2.739-2.178 0-1.111-.616-1.771-1.364-2.178v-.055c.539-.385 1.045-1.056 1.045-1.859 0-1.298-.924-2.167-2.365-2.167-1.419 0-2.453.836-2.453 2.145 0 .869.451 1.485 1.078 1.936v.055c-.759.407-1.397 1.078-1.397 2.123 0 1.276 1.166 2.178 2.717 2.178Zm.517-4.807c-.858-.341-1.485-.715-1.485-1.485 0-.649.44-1.012.99-1.012.682 0 1.078.473 1.078 1.133 0 .484-.187.946-.583 1.364Zm-.473 3.663c-.759 0-1.364-.473-1.364-1.21 0-.605.308-1.155.748-1.507 1.056.429 1.804.781 1.804 1.628 0 .704-.506 1.089-1.188 1.089Z"/>
  <path fill="#FFE381" fill-opacity=".5" d="M532.586 103.025h30.0971V400H532.586z"/>
  <path fill="#C4C4C4" d="M538.391 101h5.456v-1.364h-1.771c-.374 0-.913.044-1.32.088 1.485-1.452 2.706-3.036 2.706-4.51 0-1.518-1.023-2.508-2.563-2.508-1.111 0-1.837.44-2.585 1.232l.88.88c.407-.451.902-.836 1.496-.836.77 0 1.221.495 1.221 1.32 0 1.254-1.309 2.783-3.52 4.763V101Zm9.085-4.169c-.704 0-1.155-.451-1.155-1.408 0-1.001.495-1.496 1.1-1.496.693 0 1.254.55 1.397 2.035-.396.627-.902.869-1.342.869Zm-2.508 3.399c.484.495 1.221.924 2.233.924 1.617 0 3.124-1.331 3.124-4.411 0-2.827-1.386-4.037-2.926-4.037-1.397 0-2.563 1.045-2.563 2.717 0 1.727.979 2.563 2.332 2.563.561 0 1.254-.341 1.672-.891-.066 2.046-.825 2.739-1.738 2.739-.484 0-.99-.253-1.287-.572l-.847.968Zm9.139.924c1.65 0 2.739-.946 2.739-2.178 0-1.111-.616-1.771-1.364-2.178v-.055c.539-.385 1.045-1.056 1.045-1.859 0-1.298-.924-2.167-2.365-2.167-1.419 0-2.453.836-2.453 2.145 0 .869.451 1.485 1.078 1.936v.055c-.759.407-1.397 1.078-1.397 2.123 0 1.276 1.166 2.178 2.717 2.178Zm.517-4.807c-.858-.341-1.485-.715-1.485-1.485 0-.649.44-1.012.99-1.012.682 0 1.078.473 1.078 1.133 0 .484-.187.946-.583 1.364Zm-.473 3.663c-.759 0-1.364-.473-1.364-1.21 0-.605.308-1.155.748-1.507 1.056.429 1.804.781 1.804 1.628 0 .704-.506 1.089-1.188 1.089Z"/>
  <path fill="#FFE381" fill-opacity=".5" d="M630.903 340h30.0971v60H630.903z"/>
  <path fill="#C4C4C4" d="M642.917 335.933c-.682 0-1.232-.572-1.386-2.057.407-.627.891-.858 1.331-.858.704 0 1.155.451 1.155 1.419 0 .99-.495 1.496-1.1 1.496Zm2.464-6.303c-.495-.506-1.221-.924-2.211-.924-1.639 0-3.146 1.298-3.146 4.334 0 2.871 1.375 4.114 2.926 4.114 1.386 0 2.552-1.045 2.552-2.717 0-1.749-.968-2.563-2.332-2.563-.528 0-1.232.33-1.672.869.066-2.035.836-2.739 1.771-2.739.473 0 .968.264 1.254.594l.858-.968Zm3.815 7.524c1.65 0 2.75-1.452 2.75-4.257 0-2.805-1.1-4.191-2.75-4.191-1.661 0-2.761 1.375-2.761 4.191 0 2.805 1.1 4.257 2.761 4.257Zm0-1.265c-.704 0-1.232-.704-1.232-2.992 0-2.277.528-2.937 1.232-2.937.693 0 1.221.66 1.221 2.937 0 2.288-.528 2.992-1.221 2.992Z"/>
</svg>
