<svg width="326" height="246" viewBox="0 0 326 246" fill="none" xmlns="http://www.w3.org/2000/svg">
<rect x="35" y="34" width="256" height="156" rx="3" fill="white" stroke="#2D2D2D" stroke-width="4"/>
<g filter="url(#filter0_d_493_412)">
<path d="M160.711 37.7962C161.909 36.3818 164.091 36.3818 165.289 37.7962L290.466 185.561C292.118 187.51 290.732 190.5 288.177 190.5H37.8227C35.2678 190.5 33.8822 187.51 35.5336 185.561L160.711 37.7962Z" stroke="#2D2D2D" stroke-width="4" shape-rendering="crispEdges"/>
</g>
<g filter="url(#filter1_d_493_412)">
<path d="M160.188 126.088C161.885 127.242 164.115 127.242 165.812 126.088L290.73 41.1345C294.801 38.3659 292.842 32 287.919 32H38.0813C33.1581 32 31.1985 38.3659 35.2696 41.1345L160.188 126.088Z" fill="white"/>
<path d="M161.313 124.434C162.331 125.126 163.669 125.126 164.687 124.434L289.606 39.4807C292.048 37.8195 290.873 34 287.919 34H38.0813C35.1274 34 33.9517 37.8195 36.3943 39.4807L161.313 124.434Z" stroke="#2D2D2D" stroke-width="4"/>
</g>
<defs>
<filter id="filter0_d_493_412" x="28.813" y="26.7354" width="268.374" height="165.765" filterUnits="userSpaceOnUse" color-interpolation-filters="sRGB">
<feFlood flood-opacity="0" result="BackgroundImageFix"/>
<feColorMatrix in="SourceAlpha" type="matrix" values="0 0 0 0 0 0 0 0 0 0 0 0 0 0 0 0 0 0 127 0" result="hardAlpha"/>
<feOffset dy="-4"/>
<feGaussianBlur stdDeviation="2"/>
<feComposite in2="hardAlpha" operator="out"/>
<feColorMatrix type="matrix" values="0 0 0 0 0 0 0 0 0 0 0 0 0 0 0 0 0 0 0.1 0"/>
<feBlend mode="normal" in2="BackgroundImageFix" result="effect1_dropShadow_493_412"/>
<feBlend mode="normal" in="SourceGraphic" in2="effect1_dropShadow_493_412" result="shape"/>
</filter>
<filter id="filter1_d_493_412" x="29.072" y="32" width="267.856" height="102.953" filterUnits="userSpaceOnUse" color-interpolation-filters="sRGB">
<feFlood flood-opacity="0" result="BackgroundImageFix"/>
<feColorMatrix in="SourceAlpha" type="matrix" values="0 0 0 0 0 0 0 0 0 0 0 0 0 0 0 0 0 0 127 0" result="hardAlpha"/>
<feOffset dy="4"/>
<feGaussianBlur stdDeviation="2"/>
<feComposite in2="hardAlpha" operator="out"/>
<feColorMatrix type="matrix" values="0 0 0 0 0 0 0 0 0 0 0 0 0 0 0 0 0 0 0.25 0"/>
<feBlend mode="normal" in2="BackgroundImageFix" result="effect1_dropShadow_493_412"/>
<feBlend mode="normal" in="SourceGraphic" in2="effect1_dropShadow_493_412" result="shape"/>
</filter>
</defs>
</svg>
